<svg width="24" height="24" viewBox="0 0 24 24" fill="none" xmlns="http://www.w3.org/2000/svg">
<path fill-rule="evenodd" clip-rule="evenodd" d="M24 12C24 13.5759 23.6896 15.1363 23.0866 16.5922C22.4835 18.0481 21.5996 19.371 20.4853 20.4853C19.371 21.5996 18.0481 22.4835 16.5922 23.0866C15.1363 23.6896 13.5759 24 12 24C8.8174 24 5.76515 22.7357 3.51472 20.4853C1.26428 18.2348 0 15.1826 0 12C0 8.8174 1.26428 5.76516 3.51472 3.51472C5.76515 1.26428 8.8174 0 12 0C13.5759 0 15.1363 0.310388 16.5922 0.913445C18.0481 1.5165 19.371 2.40041 20.4853 3.51472C21.5996 4.62902 22.4835 5.95189 23.0866 7.4078C23.6896 8.8637 24 10.4241 24 12ZM10.5079 15.4328V3.0869H13.4921V15.4328H10.5079ZM10.1356 19.0487C10.1356 18.0191 10.9703 17.1844 12 17.1844C13.0296 17.1844 13.8643 18.0191 13.8643 19.0487C13.8643 20.0784 13.0296 20.9131 12 20.9131C10.9703 20.9131 10.1356 20.0784 10.1356 19.0487Z" fill="black"/>
</svg>
